<svg width="109" height="34" viewBox="0 0 109 34" fill="none" xmlns="http://www.w3.org/2000/svg">
<path d="M20.5137 24.3428C20.5137 26.291 20.0596 27.9463 19.1514 29.3086C18.2578 30.6562 17.042 31.6816 15.5039 32.3848C13.9805 33.0879 12.2593 33.4395 10.3403 33.4395C8.42139 33.4395 6.69287 33.0879 5.15479 32.3848C3.6167 31.6816 2.40088 30.6562 1.50732 29.3086C0.61377 27.9463 0.166992 26.291 0.166992 24.3428C0.166992 23.0684 0.408691 21.9038 0.89209 20.8491C1.39014 19.7798 2.08594 18.8496 2.97949 18.0586C3.8877 17.2676 4.95703 16.6597 6.1875 16.2349C7.43262 15.7954 8.80225 15.5757 10.2964 15.5757C12.2593 15.5757 14.0098 15.9565 15.5479 16.7183C17.0859 17.4653 18.2944 18.498 19.1733 19.8164C20.0669 21.1348 20.5137 22.6436 20.5137 24.3428ZM16.4268 24.2549C16.4268 23.0684 16.1704 22.021 15.6577 21.1128C15.145 20.1899 14.4272 19.4722 13.5044 18.9595C12.5815 18.4468 11.5122 18.1904 10.2964 18.1904C9.05127 18.1904 7.97461 18.4468 7.06641 18.9595C6.17285 19.4722 5.47705 20.1899 4.979 21.1128C4.48096 22.021 4.23193 23.0684 4.23193 24.2549C4.23193 25.4854 4.47363 26.54 4.95703 27.4189C5.45508 28.2832 6.1582 28.9497 7.06641 29.4185C7.98926 29.8726 9.08057 30.0996 10.3403 30.0996C11.6001 30.0996 12.6841 29.8726 13.5923 29.4185C14.5005 28.9497 15.1963 28.2832 15.6797 27.4189C16.1777 26.54 16.4268 25.4854 16.4268 24.2549ZM19.7666 9.33545C19.7666 10.8882 19.3564 12.2871 18.5361 13.5322C17.7158 14.7773 16.5952 15.7588 15.1743 16.4766C13.7534 17.1943 12.1421 17.5532 10.3403 17.5532C8.50928 17.5532 6.87598 17.1943 5.44043 16.4766C4.01953 15.7588 2.90625 14.7773 2.10059 13.5322C1.29492 12.2871 0.89209 10.8882 0.89209 9.33545C0.89209 7.4751 1.29492 5.89307 2.10059 4.58936C2.9209 3.28564 4.0415 2.28955 5.4624 1.60107C6.8833 0.912598 8.50195 0.568359 10.3184 0.568359C12.1494 0.568359 13.7754 0.912598 15.1963 1.60107C16.6172 2.28955 17.7305 3.28564 18.5361 4.58936C19.3564 5.89307 19.7666 7.4751 19.7666 9.33545ZM15.7017 9.40137C15.7017 8.33203 15.4746 7.38721 15.0205 6.56689C14.5664 5.74658 13.9365 5.10205 13.1309 4.6333C12.3252 4.1499 11.3877 3.9082 10.3184 3.9082C9.24902 3.9082 8.31152 4.13525 7.50586 4.58936C6.71484 5.02881 6.09229 5.65869 5.63818 6.479C5.19873 7.29932 4.979 8.27344 4.979 9.40137C4.979 10.5 5.19873 11.4595 5.63818 12.2798C6.09229 13.1001 6.72217 13.7373 7.52783 14.1914C8.3335 14.6455 9.271 14.8726 10.3403 14.8726C11.4097 14.8726 12.3398 14.6455 13.1309 14.1914C13.9365 13.7373 14.5664 13.1001 15.0205 12.2798C15.4746 11.4595 15.7017 10.5 15.7017 9.40137ZM47.2764 22.2334V25.5732H24.1611V23.1782L38.4873 1.00781H41.8052L38.2456 7.42383L28.7754 22.2334H47.2764ZM42.8159 1.00781V33H38.751V1.00781H42.8159ZM71.644 1.00781V3.29297L58.3945 33H54.1099L67.3374 4.34766H50.0229V1.00781H71.644ZM108.426 15.8394V19.6626H86.4976V15.8394H108.426ZM99.5054 6.50098V29.792H95.4404V6.50098H99.5054Z" fill="#177165"/>
</svg>
